<?xml version="1.0" encoding="utf-8"?>
<svg x="0px" y="0px" width="96px" height="16px" viewBox="0 0 96 16" xmlns="http://www.w3.org/2000/svg" xmlns:bx="https://boxy-svg.com">
  <g transform="translate(80, 0)">
    <path data-color="color-2" d="M10,14H6c0,1.1,0.9,2,2,2S10,15.1,10,14z" style="fill: rgb(255, 255, 255);"/>
    <path d="M15,11h-0.5C13.8,10.3,13,9.3,13,8V5c0-2.8-2.2-5-5-5S3,2.2,3,5v3c0,1.3-0.8,2.3-1.5,3H1c-0.6,0-1,0.4-1,1&#10;&#9;s0.4,1,1,1h14c0.6,0,1-0.4,1-1S15.6,11,15,11z" style="fill: rgb(255, 255, 255);"/>
  </g>
  <g transform="matrix(0.032406, 0, 0, 0.032327, 0.016041, 0.000198)" bx:origin="0 0">
    <path d="M19.215,154.585l112.695,46.467c2.078,0.852,4.221,1.259,6.337,1.259c5.718,0,11.247-2.957,14.333-8.142l50.739-85.448&#10;&#9;&#9;l92.707-45.619l2.856,42.134c0.1,1.243,0.943,2.308,2.132,2.665c1.188,0.365,2.486-0.057,3.252-1.049L381.922,5.623&#10;&#9;&#9;c0.776-1.016,0.922-2.38,0.339-3.526c-0.553-1.153-1.721-1.877-2.992-1.877L251.672,0c-1.25-0.008-2.356,0.764-2.815,1.935&#10;&#9;&#9;c-0.437,1.161-0.109,2.486,0.813,3.315l31.648,27.986l-97.127,47.799c-2.908,1.43-5.316,3.664-6.974,6.436l-45.929,77.33&#10;&#9;&#9;l-99.367-40.98c-8.533-3.527-18.238,0.545-21.746,9.036C6.664,141.356,10.729,151.082,19.215,154.585z" style="fill: rgb(255, 255, 255);"/>
    <path d="M469.375,445.01H25.567c-13.801,0-24.966,11.173-24.966,24.965c0,13.789,11.165,24.963,24.966,24.963h443.808&#10;&#9;&#9;c13.78,0,24.961-11.174,24.961-24.963C494.336,456.183,483.155,445.01,469.375,445.01z" style="fill: rgb(255, 255, 255);"/>
    <path d="M50.221,241.837c-5.557,0-10.074,4.519-10.074,10.085V401.64c0,5.566,4.518,10.086,10.074,10.086h58.886&#10;&#9;&#9;c5.571,0,10.091-4.52,10.091-10.086V251.922c0-5.566-4.52-10.085-10.091-10.085H50.221z" style="fill: rgb(255, 255, 255);"/>
    <path d="M375.761,82.027V401.64c0,5.566,4.52,10.086,10.075,10.086h58.901c5.556,0,10.075-4.52,10.075-10.086V82.027&#10;&#9;&#9;c0-5.566-4.52-10.086-10.075-10.086h-58.901C380.28,71.941,375.761,76.461,375.761,82.027z" style="fill: rgb(255, 255, 255);"/>
    <path d="M273.969,161.045c-5.57,0-10.09,4.52-10.09,10.086V401.64c0,5.566,4.519,10.086,10.09,10.086h58.886&#10;&#9;&#9;c5.557,0,10.075-4.52,10.075-10.086V171.131c0-5.566-4.519-10.086-10.075-10.086H273.969z" style="fill: rgb(255, 255, 255);"/>
    <path d="M162.103,286.386c-5.571,0-10.091,4.517-10.091,10.084v105.17c0,5.566,4.52,10.086,10.091,10.086h58.87&#10;&#9;&#9;c5.572,0,10.092-4.52,10.092-10.086V296.47c0-5.567-4.52-10.084-10.092-10.084H162.103z" style="fill: rgb(255, 255, 255);"/>
  </g>
  <g transform="matrix(1, 0, 0, 1, 9.248517, -18.301558)"/>
  <g transform="matrix(1, 0, 0, 1, 9.248517, -18.301558)"/>
  <g transform="matrix(1, 0, 0, 1, 9.248517, -18.301558)"/>
  <g transform="matrix(1, 0, 0, 1, 9.248517, -18.301558)"/>
  <g transform="matrix(1, 0, 0, 1, 9.248517, -18.301558)"/>
  <g transform="matrix(1, 0, 0, 1, 9.248517, -18.301558)"/>
  <g transform="matrix(1, 0, 0, 1, 9.248517, -18.301558)"/>
  <g transform="matrix(1, 0, 0, 1, 9.248517, -18.301558)"/>
  <g transform="matrix(1, 0, 0, 1, 9.248517, -18.301558)"/>
  <g transform="matrix(1, 0, 0, 1, 9.248517, -18.301558)"/>
  <g transform="matrix(1, 0, 0, 1, 9.248517, -18.301558)"/>
  <g transform="matrix(1, 0, 0, 1, 9.248517, -18.301558)"/>
  <g transform="matrix(1, 0, 0, 1, 9.248517, -18.301558)"/>
  <g transform="matrix(1, 0, 0, 1, 9.248517, -18.301558)"/>
  <g transform="matrix(1, 0, 0, 1, 9.248517, -18.301558)"/>
  <g transform="matrix(1, 0, 0, 1, 16.096008, -15.811554)"/>
  <g transform="matrix(1, 0, 0, 1, 16.096008, -15.811554)"/>
  <g transform="matrix(1, 0, 0, 1, 16.096008, -15.811554)"/>
  <g transform="matrix(1, 0, 0, 1, 16.096008, -15.811554)"/>
  <g transform="matrix(1, 0, 0, 1, 16.096008, -15.811554)"/>
  <g transform="matrix(1, 0, 0, 1, 16.096008, -15.811554)"/>
  <g transform="matrix(1, 0, 0, 1, 16.096008, -15.811554)"/>
  <g transform="matrix(1, 0, 0, 1, 16.096008, -15.811554)"/>
  <g transform="matrix(1, 0, 0, 1, 16.096008, -15.811554)"/>
  <g transform="matrix(1, 0, 0, 1, 16.096008, -15.811554)"/>
  <g transform="matrix(1, 0, 0, 1, 16.096008, -15.811554)"/>
  <g transform="matrix(1, 0, 0, 1, 16.096008, -15.811554)"/>
  <g transform="matrix(1, 0, 0, 1, 16.096008, -15.811554)"/>
  <g transform="matrix(1, 0, 0, 1, 16.096008, -15.811554)"/>
  <g transform="matrix(1, 0, 0, 1, 16.096008, -15.811554)"/>
  <g transform="matrix(0.030108, 0, 0, 0.03118, 32.330311, -0.088682)" bx:origin="0 0">
    <g>
      <path d="M511.377,98.64c-1.729-7.325-7.128-13.235-14.27-15.615l-51.13-17.044l-17.043-51.13&#10;&#9;&#9;&#9;c-2.382-7.141-8.29-12.539-15.615-14.27c-7.322-1.729-15.026,0.458-20.349,5.78l-61.435,61.432&#10;&#9;&#9;&#9;c-5.818,5.818-7.85,14.422-5.247,22.228l16.233,48.698l-37.461,37.461c-33.138-26.346-73.902-40.655-116.869-40.655&#10;&#9;&#9;&#9;c-50.28,0-97.549,19.578-133.104,55.13c-73.394,73.395-73.395,192.816,0,266.213c35.555,35.552,82.825,55.132,133.104,55.132&#10;&#9;&#9;&#9;c50.281,0,97.55-19.58,133.104-55.133c68.196-68.197,73.009-176.131,14.468-249.958l37.474-37.474l48.7,16.232&#10;&#9;&#9;&#9;c2.252,0.75,4.567,1.115,6.865,1.115c5.67,0,11.222-2.223,15.36-6.362l61.433-61.432&#10;&#9;&#9;&#9;C510.919,113.666,513.106,105.965,511.377,98.64z M290.58,426.153c-27.349,27.349-63.711,42.41-102.388,42.41&#10;&#9;&#9;&#9;s-75.039-15.06-102.388-42.41c-56.455-56.46-56.457-148.324,0-204.779c27.349-27.348,63.711-42.408,102.388-42.408&#10;&#9;&#9;&#9;c31.34,0,61.157,9.891,85.893,28.192l-31.237,31.237c-16.165-10.396-34.975-15.99-54.654-15.99&#10;&#9;&#9;&#9;c-27.074,0-52.527,10.543-71.671,29.687c-19.145,19.144-29.689,44.598-29.688,71.672c0,27.073,10.544,52.526,29.688,71.669&#10;&#9;&#9;&#9;c19.144,19.145,44.596,29.688,71.669,29.688s52.527-10.543,71.672-29.688c34.245-34.245,38.791-87.093,13.683-126.307&#10;&#9;&#9;&#9;l31.239-31.237C346.548,294.518,341.814,374.916,290.58,426.153z M172.836,339.122c4.241,4.241,9.798,6.361,15.357,6.361&#10;&#9;&#9;&#9;c5.557,0,11.118-2.121,15.357-6.361l37.956-37.956c8.905,21.081,4.794,46.398-12.359,63.55&#10;&#9;&#9;&#9;c-10.941,10.939-25.486,16.965-40.956,16.965c-15.472,0-30.015-6.025-40.953-16.965c-10.94-10.94-16.965-25.484-16.965-40.955&#10;&#9;&#9;&#9;c0-15.472,6.024-30.015,16.965-40.955c10.94-10.939,25.484-16.963,40.955-16.963c7.905,0,15.563,1.581,22.626,4.578&#10;&#9;&#9;&#9;l-37.983,37.983C164.354,316.887,164.354,330.638,172.836,339.122z" style="fill: rgb(255, 255, 255);"/>
    </g>
  </g>
  <g transform="matrix(1, 0, 0, 1, 40.000092, 0.000023)"/>
  <g transform="matrix(1, 0, 0, 1, 40.000092, 0.000023)"/>
  <g transform="matrix(1, 0, 0, 1, 40.000092, 0.000023)"/>
  <g transform="matrix(1, 0, 0, 1, 40.000092, 0.000023)"/>
  <g transform="matrix(1, 0, 0, 1, 40.000092, 0.000023)"/>
  <g transform="matrix(1, 0, 0, 1, 40.000092, 0.000023)"/>
  <g transform="matrix(1, 0, 0, 1, 40.000092, 0.000023)"/>
  <g transform="matrix(1, 0, 0, 1, 40.000092, 0.000023)"/>
  <g transform="matrix(1, 0, 0, 1, 40.000092, 0.000023)"/>
  <g transform="matrix(1, 0, 0, 1, 40.000092, 0.000023)"/>
  <g transform="matrix(1, 0, 0, 1, 40.000092, 0.000023)"/>
  <g transform="matrix(1, 0, 0, 1, 40.000092, 0.000023)"/>
  <g transform="matrix(1, 0, 0, 1, 40.000092, 0.000023)"/>
  <g transform="matrix(1, 0, 0, 1, 40.000092, 0.000023)"/>
  <g transform="matrix(1, 0, 0, 1, 40.000092, 0.000023)"/>
  <g transform="matrix(1, 0, 0, 1, 61.413998, 0.1245)"/>
  <g transform="matrix(1, 0, 0, 1, 61.413998, 0.1245)"/>
  <g transform="matrix(1, 0, 0, 1, 61.413998, 0.1245)"/>
  <g transform="matrix(1, 0, 0, 1, 61.413998, 0.1245)"/>
  <g transform="matrix(1, 0, 0, 1, 61.413998, 0.1245)"/>
  <g transform="matrix(1, 0, 0, 1, 61.413998, 0.1245)"/>
  <g transform="matrix(1, 0, 0, 1, 61.413998, 0.1245)"/>
  <g transform="matrix(1, 0, 0, 1, 61.413998, 0.1245)"/>
  <g transform="matrix(1, 0, 0, 1, 61.413998, 0.1245)"/>
  <g transform="matrix(1, 0, 0, 1, 61.413998, 0.1245)"/>
  <g transform="matrix(1, 0, 0, 1, 61.413998, 0.1245)"/>
  <g transform="matrix(1, 0, 0, 1, 61.413998, 0.1245)"/>
  <g transform="matrix(1, 0, 0, 1, 61.413998, 0.1245)"/>
  <g transform="matrix(1, 0, 0, 1, 61.413998, 0.1245)"/>
  <g transform="matrix(1, 0, 0, 1, 61.413998, 0.1245)"/>
  <g transform="matrix(0.210704, 0, 0, 0.272633, 16.05154, -0.086979)"/>
  <g transform="matrix(0.210704, 0, 0, 0.272633, 16.05154, -0.086979)"/>
  <g transform="matrix(0.210704, 0, 0, 0.272633, 16.05154, -0.086979)"/>
  <g transform="matrix(0.210704, 0, 0, 0.272633, 16.05154, -0.086979)"/>
  <g transform="matrix(0.210704, 0, 0, 0.272633, 16.05154, -0.086979)"/>
  <g transform="matrix(0.210704, 0, 0, 0.272633, 16.05154, -0.086979)"/>
  <g transform="matrix(0.210704, 0, 0, 0.272633, 16.05154, -0.086979)"/>
  <g transform="matrix(0.210704, 0, 0, 0.272633, 16.05154, -0.086979)"/>
  <g transform="matrix(0.210704, 0, 0, 0.272633, 16.05154, -0.086979)"/>
  <g transform="matrix(0.210704, 0, 0, 0.272633, 16.05154, -0.086979)"/>
  <g transform="matrix(0.210704, 0, 0, 0.272633, 16.05154, -0.086979)"/>
  <g transform="matrix(0.210704, 0, 0, 0.272633, 16.05154, -0.086979)"/>
  <g transform="matrix(0.210704, 0, 0, 0.272633, 16.05154, -0.086979)"/>
  <g transform="matrix(0.210704, 0, 0, 0.272633, 16.05154, -0.086979)"/>
  <g transform="matrix(0.210704, 0, 0, 0.272633, 16.05154, -0.086979)"/>
  <path d="M 28.187 7.571 C 28.821 7.52 29.378 7.27 29.844 6.824 C 31.447 5.293 31.398 1.88 31.395 1.735 C 31.39 1.467 31.156 1.252 30.87 1.252 L 28.23 1.25 L 28.23 0.207 C 28.23 0.071 28.112 -0.039 27.967 -0.039 L 19.982 -0.039 C 19.837 -0.039 19.72 0.071 19.72 0.207 L 19.72 1.25 L 17.079 1.252 C 16.793 1.252 16.56 1.467 16.554 1.735 C 16.552 1.88 16.503 5.293 18.106 6.824 C 18.572 7.27 19.128 7.52 19.763 7.571 C 20.005 9.164 21.277 10.449 22.924 10.813 L 22.924 13.914 L 21.593 13.914 C 21.508 13.914 21.427 13.953 21.378 14.019 L 20.222 15.574 C 20.166 15.649 20.16 15.747 20.205 15.829 C 20.25 15.91 20.34 15.961 20.438 15.961 C 20.438 15.961 27.512 15.961 27.513 15.961 C 27.658 15.961 27.775 15.851 27.775 15.715 C 27.775 15.655 27.749 15.606 27.715 15.558 L 26.572 14.019 C 26.522 13.953 26.442 13.914 26.356 13.914 L 25.025 13.914 L 25.025 10.813 C 26.672 10.449 27.944 9.164 28.187 7.571 Z M 30.336 2.237 C 30.286 3.327 30.011 5.258 29.094 6.134 C 28.841 6.376 28.556 6.521 28.23 6.573 L 28.23 2.235 L 30.336 2.237 Z M 17.614 2.237 L 19.72 2.235 L 19.72 6.573 C 19.394 6.521 19.109 6.376 18.856 6.135 C 17.941 5.261 17.665 3.328 17.614 2.237 Z M 21.798 4.073 L 23.302 3.868 L 23.975 2.59 L 24.647 3.868 L 26.151 4.073 L 25.063 5.068 L 25.32 6.474 L 23.975 5.81 L 22.63 6.474 L 22.887 5.068 L 21.798 4.073 Z" style="fill: rgb(255, 255, 255);"/>
  <g transform="matrix(0.041819, 0, 0, 0.033543, 46.546288, 0.038375)">
    <g>
      <path d="M238.4,0C133,0,47.2,85.8,47.2,191.2c0,12,1.1,24.1,3.4,35.9c0.1,0.7,0.5,2.8,1.3,6.4c2.9,12.9,7.2,25.6,12.8,37.7&#10;&#9;&#9;&#9;c20.6,48.5,65.9,123,165.3,202.8c2.5,2,5.5,3,8.5,3s6-1,8.5-3c99.3-79.8,144.7-154.3,165.3-202.8c5.6-12.1,9.9-24.7,12.8-37.7&#10;&#9;&#9;&#9;c0.8-3.6,1.2-5.7,1.3-6.4c2.2-11.8,3.4-23.9,3.4-35.9C429.6,85.8,343.8,0,238.4,0z M399.6,222.4c0,0.2-0.1,0.4-0.1,0.6&#10;&#9;&#9;&#9;c-0.1,0.5-0.4,2-0.9,4.3c0,0.1,0,0.1,0,0.2c-2.5,11.2-6.2,22.1-11.1,32.6c-0.1,0.1-0.1,0.3-0.2,0.4&#10;&#9;&#9;&#9;c-18.7,44.3-59.7,111.9-148.9,185.6c-89.2-73.7-130.2-141.3-148.9-185.6c-0.1-0.1-0.1-0.3-0.2-0.4c-4.8-10.4-8.5-21.4-11.1-32.6&#10;&#9;&#9;&#9;c0-0.1,0-0.1,0-0.2c-0.6-2.3-0.8-3.8-0.9-4.3c0-0.2-0.1-0.4-0.1-0.7c-2-10.3-3-20.7-3-31.2c0-90.5,73.7-164.2,164.2-164.2&#10;&#9;&#9;&#9;s164.2,73.7,164.2,164.2C402.6,201.7,401.6,212.2,399.6,222.4z" style="fill: rgb(255, 255, 255);"/>
      <path d="M238.4,71.9c-66.9,0-121.4,54.5-121.4,121.4s54.5,121.4,121.4,121.4s121.4-54.5,121.4-121.4S305.3,71.9,238.4,71.9z&#10;&#9;&#9;&#9; M238.4,287.7c-52.1,0-94.4-42.4-94.4-94.4s42.4-94.4,94.4-94.4s94.4,42.4,94.4,94.4S290.5,287.7,238.4,287.7z" style="fill: rgb(255, 255, 255);"/>
    </g>
  </g>
  <g transform="matrix(0.408195, 0, 0, 0.324132, 63.175037, 1.268355)">
    <path d="M12.745,10.14h-1.563V7.397h1.524c0.987,0,1.603,0.474,1.603,1.358V8.78C14.309,9.55,13.73,10.14,12.745,10.14z&#10;&#9;&#9; M23.976,10.126v-0.025c0-1.59-1.088-2.704-2.703-2.704h-1.525v5.408h1.525C22.888,12.805,23.976,11.716,23.976,10.126z M39.394,5&#10;&#9;&#9;v33.916c0,2.761-2.237,5-5,5H9.522c-2.762,0-5-2.239-5-5V5c0-2.761,2.238-5,5-5h24.871C37.154,0,39.394,2.239,39.394,5z&#10;&#9;&#9; M17.772,13.6c0,0.551,0.437,0.987,0.987,0.987h2.512c2.819,0,4.769-1.961,4.769-4.486v-0.025c0-2.525-1.947-4.46-4.769-4.46&#10;&#9;&#9;h-2.512c-0.551,0-0.987,0.436-0.987,0.987V13.6z M9.208,13.676c0,0.552,0.436,0.987,0.987,0.987c0.551,0,0.986-0.436,0.986-0.987&#10;&#9;&#9;v-1.78h1.5c2.012,0,3.626-1.076,3.626-3.152V8.717c0-1.832-1.294-3.101-3.435-3.101h-2.678c-0.552,0-0.987,0.436-0.987,0.987&#10;&#9;&#9;L9.208,13.676L9.208,13.676z M34.708,36.301c0-1.104-0.896-2-2-2h-21.5c-1.104,0-2,0.896-2,2c0,1.104,0.896,2,2,2h21.5&#10;&#9;&#9;C33.812,38.301,34.708,37.405,34.708,36.301z M34.708,28.801c0-1.104-0.896-2-2-2h-21.5c-1.104,0-2,0.896-2,2c0,1.104,0.896,2,2,2&#10;&#9;&#9;h21.5C33.812,30.801,34.708,29.905,34.708,28.801z M34.708,21.301c0-1.104-0.896-2-2-2h-14c-1.104,0-2,0.896-2,2&#10;&#9;&#9;c0,1.104,0.896,2,2,2h14C33.812,23.301,34.708,22.405,34.708,21.301z M34.708,6.513c0-0.5-0.396-0.897-0.896-0.897h-5.024&#10;&#9;&#9;c-0.552,0-0.985,0.436-0.985,0.987v7.073c0,0.552,0.436,0.987,0.985,0.987c0.551,0,0.986-0.436,0.986-0.987v-2.562h3.46&#10;&#9;&#9;c0.5,0,0.897-0.397,0.897-0.897S33.734,9.32,33.234,9.32h-3.46V7.41h4.037C34.311,7.409,34.708,7.013,34.708,6.513z" style="fill: rgb(255, 255, 255);"/>
  </g>
</svg>